<?xml version="1.0" encoding="utf-8"?>
<!-- Generator: Adobe Illustrator 16.0.0, SVG Export Plug-In . SVG Version: 6.00 Build 0)  -->
<!DOCTYPE svg PUBLIC "-//W3C//DTD SVG 1.1//EN" "http://www.w3.org/Graphics/SVG/1.1/DTD/svg11.dtd">
<svg version="1.1" id="Шар_1" xmlns="http://www.w3.org/2000/svg" xmlns:xlink="http://www.w3.org/1999/xlink" x="0px" y="0px"
	 width="156.039px" height="41.713px" viewBox="3.667 3 156.039 41.713" enable-background="new 3.667 3 156.039 41.713"
	 xml:space="preserve">
<g>
	<g>
		<path d="M4.519,5.476h5.185c2.256,0,4.513,0.576,6.241,2.208c1.728,1.632,2.88,4.32,2.88,8.353c0,4.033-1.152,6.672-2.88,8.305
			c-1.728,1.633-3.984,2.304-6.241,2.304v14.112H4.519V5.476z M9.703,21.365c1.584,0,2.592-0.288,3.168-1.104
			c0.576-0.768,0.72-2.064,0.72-4.033c0-1.968-0.144-3.36-0.72-4.224c-0.576-0.864-1.584-1.248-3.168-1.248V21.365z"/>
		<path d="M21.414,5.476h5.185v35.282h-5.185V5.476z"/>
		<path d="M35.91,22.373l-0.432-1.632H35.19v20.017h-4.752V5.476h4.608l5.041,18.386l0.432,1.633h0.288V5.476h4.752v35.282h-4.608
			L35.91,22.373z"/>
		<path d="M57.702,18.149v-5.424c0-0.96-0.192-1.632-0.672-2.208c-0.24-0.24-0.624-0.384-1.056-0.384
			c-0.912,0-1.344,0.672-1.536,1.296c-0.144,0.384-0.192,0.816-0.192,1.296v21.218c0,1.009,0.24,1.681,0.72,2.208
			c0.24,0.24,0.576,0.385,1.008,0.385c0.912,0,1.344-0.576,1.536-1.297c0.144-0.336,0.192-0.768,0.192-1.296v-6.385h-2.064V23.19
			h7.249v17.568h-3.072l-0.624-1.68c-0.96,1.2-2.352,2.064-4.032,2.064c-1.68,0-2.832-0.432-3.696-1.2
			c-0.864-0.72-1.44-1.632-1.824-2.592c-0.432-1.104-0.624-2.399-0.576-3.841V12.725c0.048-1.393,0.336-2.688,0.864-3.792
			c0.432-0.96,1.056-1.92,2.016-2.64c0.96-0.72,2.304-1.2,4.032-1.2c1.729,0,3.024,0.48,3.984,1.2c0.96,0.72,1.632,1.68,2.064,2.64
			c0.528,1.104,0.816,2.4,0.864,3.792v5.424H57.702z"/>
		<path d="M66.677,40.758V5.476h4.56c3.072,0,5.473,0.576,7.057,2.064c1.584,1.488,2.4,3.792,2.4,7.296
			c0,1.68-0.144,2.928-0.672,4.081c-0.528,1.152-1.344,2.112-2.544,3.216c1.296,0.72,2.256,2.064,3.024,4.321
			c0.384,1.104,0.576,2.543,0.576,4.319c0,2.64-0.48,4.993-1.68,6.815c-1.2,1.824-3.264,3.024-6.336,3.168h-6.385V40.758z
			 M71.861,20.021c0.432,0,1.44,0.048,2.304-0.528c0.864-0.576,1.536-1.729,1.536-4.177c0-2.448-0.672-3.6-1.536-4.176
			c-0.864-0.576-1.872-0.528-2.304-0.528V20.021z M71.861,35.624c0.432,0,1.44,0.096,2.304-0.528
			c0.864-0.624,1.536-2.017,1.536-4.896c0-2.881-0.672-4.273-1.536-4.896c-0.864-0.624-1.872-0.528-2.304-0.528V35.624z"/>
		<path d="M97.926,5.476V33.51c-0.048,1.439-0.336,2.736-0.863,3.84c-0.433,0.96-1.104,1.872-2.064,2.592
			c-0.96,0.768-2.256,1.2-3.984,1.2s-3.072-0.433-4.032-1.2c-0.96-0.72-1.584-1.632-2.016-2.592c-0.528-1.104-0.816-2.4-0.864-3.84
			V5.476h5.185V33.51c0,1.008,0.24,1.68,0.72,2.207c0.24,0.24,0.576,0.385,1.008,0.385c0.912,0,1.344-0.576,1.536-1.296
			c0.144-0.336,0.192-0.769,0.192-1.296V5.476H97.926z"/>
		<path d="M101.716,5.476h5.185v30.483h6.865v4.799h-12.049L101.716,5.476L101.716,5.476z"/>
		<path d="M115.876,5.476h5.185v30.483h6.865v4.799h-12.049L115.876,5.476L115.876,5.476z"/>
	</g>
	<g>
		
			<image overflow="visible" opacity="0.42" enable-background="new    " width="130" height="43" xlink:href="7B671647.png"  transform="matrix(1 0 0 1 2 3)">
		</image>
		<g>
			<path fill="#FFFFFF" d="M4.519,5.476h5.185c2.256,0,4.513,0.576,6.241,2.208c1.728,1.632,2.88,4.32,2.88,8.353
				c0,4.033-1.152,6.672-2.88,8.305c-1.728,1.633-3.984,2.304-6.241,2.304v14.112H4.519V5.476z M9.703,21.365
				c1.584,0,2.592-0.288,3.168-1.104c0.576-0.768,0.72-2.064,0.72-4.033c0-1.968-0.144-3.36-0.72-4.224
				c-0.576-0.864-1.584-1.248-3.168-1.248V21.365z"/>
			<path fill="#FFFFFF" d="M21.414,5.476h5.185v35.282h-5.185V5.476z"/>
			<path fill="#FFFFFF" d="M35.91,22.373l-0.432-1.632H35.19v20.017h-4.752V5.476h4.608l5.041,18.386l0.432,1.633h0.288V5.476h4.752
				v35.282h-4.608L35.91,22.373z"/>
			<path fill="#FFFFFF" d="M57.702,18.149v-5.424c0-0.96-0.192-1.632-0.672-2.208c-0.24-0.24-0.624-0.384-1.056-0.384
				c-0.912,0-1.344,0.672-1.536,1.296c-0.144,0.384-0.192,0.816-0.192,1.296v21.218c0,1.009,0.24,1.681,0.72,2.208
				c0.24,0.24,0.576,0.385,1.008,0.385c0.912,0,1.344-0.576,1.536-1.297c0.144-0.336,0.192-0.768,0.192-1.296v-6.385h-2.064V23.19
				h7.249v17.568h-3.072l-0.624-1.68c-0.96,1.2-2.352,2.064-4.032,2.064c-1.68,0-2.832-0.432-3.696-1.2
				c-0.864-0.72-1.44-1.632-1.824-2.592c-0.432-1.104-0.624-2.399-0.576-3.841V12.725c0.048-1.393,0.336-2.688,0.864-3.792
				c0.432-0.96,1.056-1.92,2.016-2.64c0.96-0.72,2.304-1.2,4.032-1.2c1.729,0,3.024,0.48,3.984,1.2c0.96,0.72,1.632,1.68,2.064,2.64
				c0.528,1.104,0.816,2.4,0.864,3.792v5.424H57.702z"/>
			<path fill="#FFFFFF" d="M66.677,40.758V5.476h4.56c3.072,0,5.473,0.576,7.057,2.064c1.584,1.488,2.4,3.792,2.4,7.296
				c0,1.68-0.144,2.928-0.672,4.081c-0.528,1.152-1.344,2.112-2.544,3.216c1.296,0.72,2.256,2.064,3.024,4.321
				c0.384,1.104,0.576,2.543,0.576,4.319c0,2.64-0.48,4.993-1.68,6.815c-1.2,1.824-3.264,3.024-6.336,3.168h-6.385V40.758z
				 M71.861,20.021c0.432,0,1.44,0.048,2.304-0.528c0.864-0.576,1.536-1.729,1.536-4.177c0-2.448-0.672-3.6-1.536-4.176
				c-0.864-0.576-1.872-0.528-2.304-0.528V20.021z M71.861,35.624c0.432,0,1.44,0.096,2.304-0.528
				c0.864-0.624,1.536-2.017,1.536-4.896c0-2.881-0.672-4.273-1.536-4.896c-0.864-0.624-1.872-0.528-2.304-0.528V35.624z"/>
			<path fill="#FFFFFF" d="M97.926,5.476V33.51c-0.048,1.439-0.336,2.736-0.863,3.84c-0.433,0.96-1.104,1.872-2.064,2.592
				c-0.96,0.768-2.256,1.2-3.984,1.2s-3.072-0.433-4.032-1.2c-0.96-0.72-1.584-1.632-2.016-2.592c-0.528-1.104-0.816-2.4-0.864-3.84
				V5.476h5.185V33.51c0,1.008,0.24,1.68,0.72,2.207c0.24,0.24,0.576,0.385,1.008,0.385c0.912,0,1.344-0.576,1.536-1.296
				c0.144-0.336,0.192-0.769,0.192-1.296V5.476H97.926z"/>
			<path fill="#FFFFFF" d="M101.716,5.476h5.185v30.483h6.865v4.799h-12.049L101.716,5.476L101.716,5.476z"/>
			<path fill="#FFFFFF" d="M115.876,5.476h5.185v30.483h6.865v4.799h-12.049L115.876,5.476L115.876,5.476z"/>
		</g>
	</g>
</g>
<g>
	<g>
		<path d="M130.52,5.476h11.856v5.329h-6.673v9.265h4.801v5.665h-4.801v9.697h6.673v5.328H130.52V5.476z"/>
		<path d="M154.52,40.758l-2.688-14.881h-1.392v14.881h-5.186V5.476h5.186c6.192,0,8.832,3.504,8.832,10.177
			c0,3.504-0.912,6.672-2.879,8.017l3.313,17.088H154.52z M150.438,21.077c0.721,0,1.681-0.096,2.448-0.768
			c0.769-0.672,1.392-1.968,1.392-4.464c0-2.496-0.623-3.84-1.392-4.513c-0.768-0.672-1.728-0.72-2.448-0.72V21.077z"/>
	</g>
	<g>
		
			<linearGradient id="SVGID_1_" gradientUnits="userSpaceOnUse" x1="-293.0474" y1="-149.3311" x2="-293.0474" y2="-114.0474" gradientTransform="matrix(1 0 0 -1 429.4951 -108.5713)">
			<stop  offset="0" style="stop-color:#33263A"/>
			<stop  offset="0.2159" style="stop-color:#3B2B43"/>
			<stop  offset="0.5749" style="stop-color:#523A5D"/>
			<stop  offset="1" style="stop-color:#745083"/>
		</linearGradient>
		<path fill="url(#SVGID_1_)" d="M130.52,5.476h11.856v5.329h-6.673v9.265h4.801v5.665h-4.801v9.697h6.673v5.328H130.52V5.476z"/>
		
			<linearGradient id="SVGID_2_" gradientUnits="userSpaceOnUse" x1="-277.0156" y1="-149.3291" x2="-277.0156" y2="-114.0474" gradientTransform="matrix(1 0 0 -1 429.4951 -108.5713)">
			<stop  offset="0" style="stop-color:#33263A"/>
			<stop  offset="0.2159" style="stop-color:#3B2B43"/>
			<stop  offset="0.5749" style="stop-color:#523A5D"/>
			<stop  offset="1" style="stop-color:#745083"/>
		</linearGradient>
		<path fill="url(#SVGID_2_)" d="M154.52,40.758l-2.688-14.881h-1.392v14.881h-5.186V5.476h5.186c6.192,0,8.832,3.504,8.832,10.177
			c0,3.504-0.912,6.672-2.879,8.017l3.313,17.088H154.52z M150.438,21.077c0.721,0,1.681-0.096,2.448-0.768
			c0.769-0.672,1.392-1.968,1.392-4.464c0-2.496-0.623-3.84-1.392-4.513c-0.768-0.672-1.728-0.72-2.448-0.72V21.077z"/>
	</g>
</g>
</svg>
